# xmcd
#
# Track frame offsets:
#	150
#	14295
#	27582
#	41807
#	55925
#	69772
#	83375
#	96345
#	108255
#	121330
#	131447
#	143367
#	153967
#	165577
#
# Disc length: 2392 seconds
#
# Revision: 0
# Processed by: cddbd v1.5PL3 Copyright (c) Steve Scherf et al.
# Submitted via: audiograbber 1.80
#
DISCID=a609560e
DTITLE=Billie Holiday - The Best Of
DYEAR=1900
DGENRE=
TTITLE0=This Year´s Kisses
TTITLE1=I Must Have That Man!
TTITLE2=I´ll Get By
TTITLE3=Mean To Me
TTITLE4=I'll Never Be The Same
TTITLE5=Foolin' Myself
TTITLE6=Without Your Love
TTITLE7=Me, Myself And I (Are All In LOve With You)
TTITLE8=A Sailboat In The Moonlight
TTITLE9=Trav'lin' All Alone
TTITLE10=She's Funny That Way
TTITLE11=You Can't Be Mine (Ando Someone Elses Too)
TTITLE12=Say It With A Kiss
TTITLE13=The Man I LOve
EXTD=
EXTT0=
EXTT1=
EXTT2=
EXTT3=
EXTT4=
EXTT5=
EXTT6=
EXTT7=
EXTT8=
EXTT9=
EXTT10=
EXTT11=
EXTT12=
EXTT13=
PLAYORDER=
